<svg width="30" height="30" viewBox="0 0 30 30" fill="none" xmlns="http://www.w3.org/2000/svg">
<circle cx="15" cy="14.9999" r="12" stroke="black"/>
<path d="M13.6033 17.1551H15.6133V16.7801C15.7033 15.9851 16.4683 15.3701 17.1883 14.6801C17.8333 14.0501 18.4183 13.3601 18.4183 12.3251C18.4183 10.7351 17.2933 9.62512 15.0883 9.62512C12.9583 9.62512 11.4733 10.8551 11.3833 12.9401H13.4683C13.5733 11.9951 14.1283 11.3951 14.9533 11.3951C15.7483 11.3951 16.1083 11.8151 16.1083 12.5051C16.1083 13.1051 15.6283 13.5851 15.0883 14.1101C14.3833 14.8001 13.6033 15.5351 13.6033 16.7051V17.1551ZM14.5933 20.6351C15.3433 20.6351 15.9583 20.0651 15.9583 19.3451C15.9583 18.6101 15.3433 18.0401 14.5933 18.0401C13.8283 18.0401 13.2133 18.6101 13.2133 19.3451C13.2133 20.0651 13.8283 20.6351 14.5933 20.6351Z" fill="black"/>
</svg>
