<svg width="30" height="30" viewBox="0 0 30 30" fill="none" xmlns="http://www.w3.org/2000/svg">
<path d="M3 25.625C3 24.8656 3.61561 24.25 4.375 24.25H15H25.625C26.3844 24.25 27 24.8656 27 25.625C27 26.3844 26.3844 27 25.625 27H4.375C3.61561 27 3 26.3844 3 25.625Z" stroke="black" stroke-linecap="round"/>
<path d="M15.625 12.5L15.625 24.375" stroke="black"/>
<path d="M8.75 11.875V24.375" stroke="black"/>
<path d="M24.8958 12.5521C26.4792 12.5521 26.875 11.2674 26.875 10.625L25.625 3.125H4.375L3.125 10.625C3.125 11.2674 3.52083 12.5521 5.10417 12.5521C6.6875 12.5521 7.08333 11.2674 7.08333 10.625C7.08333 11.2674 7.47917 12.5521 9.0625 12.5521C10.6458 12.5521 11.0417 11.2674 11.0417 10.625C11.0417 11.2674 11.4375 12.5521 13.0208 12.5521C14.6042 12.5521 15 11.2674 15 10.625C15 11.2674 15.3958 12.5521 16.9792 12.5521C18.5625 12.5521 18.9583 11.2674 18.9583 10.625C18.9583 11.2674 19.3542 12.5521 20.9375 12.5521C22.5208 12.5521 22.9167 11.2674 22.9167 10.625C22.9167 11.2674 23.3125 12.5521 24.8958 12.5521Z" stroke="black" stroke-linejoin="round"/>
<path d="M24.375 12.5V24.375M5.625 12.5V24.375" stroke="black"/>
<path d="M12.1875 15C13.0504 15 13.75 15.6996 13.75 16.5625C13.75 17.4254 13.0504 18.125 12.1875 18.125C11.3246 18.125 10.625 17.4254 10.625 16.5625C10.625 15.6996 11.3246 15 12.1875 15Z" stroke="black"/>
<path d="M3.125 8.125H26.875" stroke="black"/>
</svg>
